<svg xmlns="http://www.w3.org/2000/svg" width="25.294" height="25.294" viewBox="0 0 25.294 25.294">
  <path id="Icon_awesome-twitter-square" data-name="Icon awesome-twitter-square" d="M22.584,2.25H2.71A2.711,2.711,0,0,0,0,4.96V24.834a2.711,2.711,0,0,0,2.71,2.71H22.584a2.711,2.711,0,0,0,2.71-2.71V4.96A2.711,2.711,0,0,0,22.584,2.25Zm-2.761,8.966c.011.158.011.322.011.48A10.463,10.463,0,0,1,9.3,22.231a10.487,10.487,0,0,1-5.685-1.66,7.8,7.8,0,0,0,.892.045,7.424,7.424,0,0,0,4.6-1.581A3.708,3.708,0,0,1,5.64,16.466,3.991,3.991,0,0,0,7.311,16.4a3.7,3.7,0,0,1-2.964-3.636v-.045a3.7,3.7,0,0,0,1.671.469A3.7,3.7,0,0,1,4.37,10.1a3.657,3.657,0,0,1,.5-1.869,10.514,10.514,0,0,0,7.633,3.873,3.711,3.711,0,0,1,6.318-3.382,7.256,7.256,0,0,0,2.349-.892,3.693,3.693,0,0,1-1.626,2.038A7.369,7.369,0,0,0,21.68,9.3,7.794,7.794,0,0,1,19.823,11.216Z" transform="translate(0 -2.25)" fill="#fff"/>
</svg>
