<svg xmlns="http://www.w3.org/2000/svg" width="25.308" height="25.302" viewBox="0 0 25.308 25.302">
  <path id="Icon_awesome-instagram" data-name="Icon awesome-instagram" d="M12.651,8.4a6.487,6.487,0,1,0,6.487,6.487A6.477,6.477,0,0,0,12.651,8.4Zm0,10.7a4.217,4.217,0,1,1,4.217-4.217A4.225,4.225,0,0,1,12.651,19.106Zm8.266-10.97A1.513,1.513,0,1,1,19.4,6.623,1.51,1.51,0,0,1,20.917,8.136Zm4.3,1.536a7.488,7.488,0,0,0-2.044-5.3,7.537,7.537,0,0,0-5.3-2.044c-2.089-.119-8.35-.119-10.439,0a7.526,7.526,0,0,0-5.3,2.038,7.512,7.512,0,0,0-2.044,5.3c-.119,2.089-.119,8.35,0,10.439a7.488,7.488,0,0,0,2.044,5.3,7.547,7.547,0,0,0,5.3,2.044c2.089.119,8.35.119,10.439,0a7.488,7.488,0,0,0,5.3-2.044,7.537,7.537,0,0,0,2.044-5.3c.119-2.089.119-8.345,0-10.434Zm-2.7,12.675a4.27,4.27,0,0,1-2.405,2.405c-1.666.661-5.618.508-7.458.508s-5.8.147-7.458-.508a4.27,4.27,0,0,1-2.405-2.405c-.661-1.666-.508-5.618-.508-7.458s-.147-5.8.508-7.458A4.27,4.27,0,0,1,5.193,5.025c1.666-.661,5.618-.508,7.458-.508s5.8-.147,7.458.508A4.27,4.27,0,0,1,22.515,7.43c.661,1.666.508,5.618.508,7.458S23.175,20.687,22.515,22.347Z" transform="translate(0.005 -2.238)" fill="#fff"/>
</svg>
