<svg xmlns="http://www.w3.org/2000/svg" width="25.294" height="25.294" viewBox="0 0 25.294 25.294">
  <path id="Icon_awesome-facebook-square" data-name="Icon awesome-facebook-square" d="M22.584,2.25H2.71A2.71,2.71,0,0,0,0,4.96V24.834a2.71,2.71,0,0,0,2.71,2.71h7.749v-8.6H6.9V14.9h3.557V11.812c0-3.509,2.089-5.447,5.288-5.447a21.548,21.548,0,0,1,3.135.273v3.444H17.117a2.024,2.024,0,0,0-2.282,2.187V14.9h3.883L18.1,18.944H14.835v8.6h7.749a2.71,2.71,0,0,0,2.71-2.71V4.96a2.71,2.71,0,0,0-2.71-2.71Z" transform="translate(0 -2.25)" fill="#fff"/>
</svg>
