<svg xmlns="http://www.w3.org/2000/svg" width="1080" height="1080" viewBox="0 0 1080 1080">
  <defs>
    <style>
      .cls-1 {
        fill: #231f20;
        stroke-miterlimit: 10;
      }

      .cls-1, .cls-2 {
        stroke: #000;
        stroke-width: 3px;
      }

      .cls-2 {
        font-size: 81.48px;
        font-family: Verdana;
      }

      .cls-3 {
        letter-spacing: -0.01em;
      }
    </style>
  </defs>
  <g id="Layer_2" data-name="Layer 2">
    <g>
      <rect class="cls-1" x="425.96" y="468.19" width="246.28" height="54.09"/>
      <g>
        <rect class="cls-1" x="345.52" y="381.19" width="63.38" height="237.16" rx="12" transform="translate(754.43 999.53) rotate(-180)"/>
        <polygon class="cls-1" points="404 518.49 363.25 518.49 363.25 518.49 363.25 518.49 363.25 518.49 404 518.49 404 518.49 404 518.49 404 518.49"/>
        <rect class="cls-1" x="275.27" y="414.47" width="52.52" height="170.59" rx="12" transform="translate(603.06 999.53) rotate(-180)"/>
        <rect class="cls-1" x="228.57" y="448.8" width="28.97" height="106.1" rx="12" transform="translate(486.11 1003.7) rotate(-180)"/>
      </g>
      <g>
        <rect class="cls-1" x="691.63" y="393.67" width="63.38" height="237.16" rx="12"/>
        <polygon class="cls-1" points="696.54 493.53 737.28 493.53 737.28 493.53 737.28 493.53 737.28 493.53 696.54 493.53 696.54 493.53 696.54 493.53 696.54 493.53"/>
        <rect class="cls-1" x="772.75" y="426.96" width="52.52" height="170.59" rx="12"/>
        <rect class="cls-1" x="843" y="457.12" width="28.97" height="106.1" rx="12"/>
      </g>
      <text class="cls-2" transform="translate(346.06 717.34) scale(0.54 1)">THE FITNE<tspan class="cls-3" x="435.41" y="0">S</tspan><tspan x="490.23" y="0">S HUB</tspan></text>
    </g>
  </g>
</svg>
