<?xml version="1.0" encoding="utf-8"?>
<!-- Generator: Adobe Illustrator 24.1.1, SVG Export Plug-In . SVG Version: 6.00 Build 0)  -->
<svg version="1.1" id="Layer_1" xmlns="http://www.w3.org/2000/svg" xmlns:xlink="http://www.w3.org/1999/xlink" x="0px" y="0px"
	 viewBox="0 0 685 368" style="enable-background:new 0 0 685 368;" xml:space="preserve">
<style type="text/css">
	.st0{fill:#FFFFFF;stroke:#000000;}
	.st1{font-family:'Verdana';}
	.st2{font-size:90.5438px;}
</style>
<g id="Layer_2_1_">
	<g>
		<rect x="224.8" y="94.2" class="st0" width="246.3" height="54.1"/>
		<g>
			<path class="st0" d="M195.7,244.3h-39.4c-6.6,0-12-5.4-12-12V19.1c0-6.6,5.4-12,12-12h39.4c6.6,0,12,5.4,12,12v213.2
				C207.7,238.9,202.4,244.3,195.7,244.3z"/>
			<path class="st0" d="M114.6,211H86.1c-6.6,0-12-5.4-12-12V52.4c0-6.6,5.4-12,12-12h28.5c6.6,0,12,5.4,12,12V199
				C126.6,205.7,121.2,211,114.6,211z"/>
			<path class="st0" d="M44.4,180.9h-5c-6.6,0-12-5.4-12-12V86.8c0-6.6,5.4-12,12-12h5c6.6,0,12,5.4,12,12v82.1
				C56.4,175.5,51,180.9,44.4,180.9z"/>
		</g>
		<g>
			<path class="st0" d="M502.5,19.6h39.4c6.6,0,12,5.4,12,12v213.2c0,6.6-5.4,12-12,12h-39.4c-6.6,0-12-5.4-12-12V31.6
				C490.5,25,495.8,19.6,502.5,19.6z"/>
			<polyline class="st0" points="495.4,119.5 495.4,119.5 495.4,119.5 495.4,119.5 			"/>
			<polyline class="st0" points="536.1,119.5 536.1,119.5 536.1,119.5 536.1,119.5 			"/>
			<path class="st0" d="M583.6,52.9h28.5c6.6,0,12,5.4,12,12v146.6c0,6.6-5.4,12-12,12h-28.5c-6.6,0-12-5.4-12-12V64.9
				C571.6,58.3,577,52.9,583.6,52.9z"/>
			<path class="st0" d="M653.8,83.1h5c6.6,0,12,5.4,12,12v82.1c0,6.6-5.4,12-12,12h-5c-6.6,0-12-5.4-12-12V95.1
				C641.8,88.5,647.2,83.1,653.8,83.1z"/>
		</g>
		<text transform="matrix(0.6252 0 0 1 90.83 346.8553)" class="st0 st1 st2">THE FITNE</text>
		<text transform="matrix(0.6252 0 0 1 90.83 346.8551)" class="st0 st1 st2">THE FITNE</text>
		<text transform="matrix(0.6252 0 0 1 393.3515 346.8553)" class="st0 st1 st2">S</text>
		<text transform="matrix(0.6252 0 0 1 393.3515 346.8553)" class="st0 st1 st2">S</text>
		<text transform="matrix(0.6252 0 0 1 431.4394 346.8553)" class="st0 st1 st2">S HUB</text>
		<text transform="matrix(0.6252 0 0 1 431.4394 346.8553)" class="st0 st1 st2">S HUB</text>
	</g>
</g>
</svg>
